<?xml version="1.0" standalone="no"?><!DOCTYPE svg PUBLIC "-//W3C//DTD SVG 1.1//EN" "http://www.w3.org/Graphics/SVG/1.1/DTD/svg11.dtd"><svg t="1675682568565" class="icon" viewBox="0 0 1024 1024" version="1.1" xmlns="http://www.w3.org/2000/svg" p-id="3448" xmlns:xlink="http://www.w3.org/1999/xlink" width="200" height="200"><path d="M507.2 427.2l-68.8 35.2c-19.2-40-52.8-41.6-56-41.6-46.4 0-68.8 30.4-68.8 91.2 0 48 19.2 91.2 68.8 91.2 30.4 0 51.2-14.4 62.4-43.2l62.4 32c-12.8 24-52.8 80-134.4 80-46.4 0-152-20.8-152-158.4 0-121.6 88-158.4 150.4-158.4 64-1.6 108.8 22.4 136 72z m296 0L736 462.4c-19.2-41.6-52.8-41.6-57.6-41.6-46.4 0-68.8 30.4-68.8 91.2 0 48 19.2 91.2 68.8 91.2 30.4 0 51.2-14.4 62.4-43.2l64 32c-4.8 8-44.8 80-134.4 80-46.4 0-152-20.8-152-158.4 0-121.6 88-158.4 150.4-158.4 62.4-1.6 107.2 22.4 134.4 72zM510.4 0C216 0 0 236.8 0 512c0 286.4 235.2 512 510.4 512C779.2 1024 1024 816 1024 512 1024 227.2 803.2 0 510.4 0z m3.2 931.2c-232 0-420.8-192-420.8-419.2 0-217.6 176-419.2 420.8-419.2 232 0 419.2 184 419.2 419.2-1.6 251.2-206.4 419.2-419.2 419.2z" p-id="3449"></path></svg>